<mxfile host="app.diagrams.net" modified="2023-08-30T13:07:33.913Z" agent="Mozilla/5.0 (Windows NT 10.0; Win64; x64) AppleWebKit/537.36 (KHTML, like Gecko) Chrome/116.0.0.0 Safari/537.36" version="21.7.1" etag="6Bn304WBtivHqOCKZ5Nz" type="github">
  <diagram name="Page-1" id="hd_NPuQT-woYKvl5xVsM">
    <mxGraphModel>
      <root>
        <mxCell id="0" />
        <mxCell id="1" parent="0" />
      </root>
    </mxGraphModel>
  </diagram>
</mxfile>
